<svg xmlns="http://www.w3.org/2000/svg" xmlns:xlink="http://www.w3.org/1999/xlink" viewBox="0,0,256,256" width="100px" height="100px"><g fill="#e50914" fill-rule="evenodd" stroke="none" stroke-width="1" stroke-linecap="butt" stroke-linejoin="miter" stroke-miterlimit="10" stroke-dasharray="" stroke-dashoffset="0" font-family="none" font-weight="none" font-size="none" text-anchor="none" style="mix-blend-mode: normal"><g transform="translate(0.00037,-0.02139) scale(5.12,5.12)"><path d="M0,19v13.41797c0.68359,-0.09766 1.41406,-0.19141 2.09375,-0.27734c0.00391,-2.80859 0.00391,-4.53125 0.00781,-7.33203c0.94141,2.75781 1.51953,4.38672 2.45312,7.00781c0.73438,-0.08203 1.54297,-0.18359 2.28125,-0.25781c0.00391,-4.1875 0.01172,-8.375 0.01953,-12.55859h-2.10547c-0.00391,2.86328 -0.00781,4.71484 -0.01172,7.57813c-0.90234,-2.79297 -1.80859,-4.64062 -2.71484,-7.57812zM8.88672,19l-0.02344,12.37891c1.94922,-0.17578 3.90234,-0.32422 5.85547,-0.4375c0.00391,-0.60156 0.00391,-1.46875 0.00391,-2.07031c-1.26953,0.07422 -2.48437,0.15625 -3.75391,0.24219c0.00391,-1.10547 0.00391,-2.02734 0.00781,-3.13281c0.92578,-0.01953 1.90234,-0.00391 2.84766,-0.01953c0,-0.60547 0.00391,-1.47656 0.00391,-2.08203c-0.9375,0.01563 -1.92578,0.01953 -2.84766,0.03516c0.00391,-1.10937 0.00391,-1.71875 0.00391,-2.82812c0.58203,-0.00781 3.26172,-0.00781 3.74609,-0.01172c0,-0.60547 -0.01172,-1.47266 -0.01172,-2.07422zM23.94141,19c0,3.88281 0,7.76953 0,11.65234c0.22656,0 0.45703,0 0.68359,0c0.46875,0 0.94141,0 1.40234,0.00391c0,-1.64844 0,-3.15234 0,-4.80078c0.11328,0 2.57422,-0.00391 2.85156,0c0,-0.58984 0,-1.46875 -0.00391,-2.05859c-0.25781,-0.00391 -2.74219,0 -2.84766,0c0,-1.0625 0,-1.66016 0,-2.71875c0.22656,0 3.20313,0 3.77344,0c0,-0.58984 -0.00391,-1.48437 -0.00391,-2.07812zM31.16797,19.01172c0.00391,3.92188 -0.01562,7.83984 -0.01172,11.76172c1.87109,0.07031 3.83984,0.14453 5.70703,0.27344c0,-0.60156 0,-1.46875 0,-2.07422c-1.18359,-0.06641 -2.41406,-0.15234 -3.59766,-0.20312c-0.00781,-3.35547 0.01172,-6.40234 0.00391,-9.75781zM38.59375,19.01172l0.02344,12.16406c0.6875,0.05469 1.39453,0.10938 2.08203,0.17188c0,-4.10937 0.00781,-8.22656 0,-12.33594zM42.5,19.01172c0.84375,2.05078 1.61328,4.10547 2.46875,6.28516c-0.88672,2.08984 -1.79297,4.16797 -2.67969,6.17188c0.73438,0.07422 1.49609,0.18359 2.23047,0.26563c0.52734,-1.29297 1.00391,-2.28906 1.53125,-3.61719c0.52734,1.41406 1.00781,2.50391 1.53125,3.96484c0.73438,0.09375 1.6875,0.23438 2.41797,0.33984c-0.88672,-2.375 -1.85937,-4.84766 -2.75,-7.09375c0.88672,-2.10547 1.79297,-4.11719 2.71875,-6.31641h-2.29687c-0.57031,1.35938 -0.96484,2.23438 -1.51172,3.53125c-0.50781,-1.34766 -0.84766,-2.22266 -1.35937,-3.53125zM16.08203,19.01172c0,0.59766 0,1.46094 0,2.0625c0.09375,-0.00391 2.11719,0.00781 2.1875,0.00781c-0.00391,3.32813 -0.00781,6.36328 -0.01172,9.69141c0.6875,-0.02734 1.42188,-0.04687 2.10547,-0.0625c0.00391,-3.30859 0.00781,-6.33203 0.01172,-9.63672c0.72656,-0.00391 1.47656,-0.00781 2.20313,-0.00781c0,-0.58984 0,-1.46484 0,-2.05469z"></path></g></g></svg>